{
	"meshes":[{
		"name":"路牌主轴",
		"primitives":[{
			"attributes":{
				"POSITION":1,
				"NORMAL":2,
				"TEXCOORD_0":3
			},
			"indices":0
		}]
	},
	{
		"name":"路牌_标题",
		"primitives":[{
			"attributes":{
				"POSITION":5,
				"NORMAL":6
			},
			"indices":4
		}]
	},
	{
		"name":"路牌_标题",
		"primitives":[{
			"attributes":{
				"POSITION":8,
				"NORMAL":9
			},
			"indices":7
		}]
	},
	{
		"name":"路牌_标题",
		"primitives":[{
			"attributes":{
				"POSITION":11,
				"NORMAL":12
			},
			"indices":10
		}]
	},
	{
		"name":"路牌_标题.1",
		"primitives":[{
			"attributes":{
				"POSITION":14,
				"NORMAL":15
			},
			"indices":13
		}]
	},
	{
		"name":"路牌_标题.2",
		"primitives":[{
			"attributes":{
				"POSITION":17,
				"NORMAL":18
			},
			"indices":16
		}]
	},
	{
		"name":"路牌_标题.3",
		"primitives":[{
			"attributes":{
				"POSITION":20,
				"NORMAL":21
			},
			"indices":19
		}]
	},
	{
		"name":"路牌_标题.4",
		"primitives":[{
			"attributes":{
				"POSITION":23,
				"NORMAL":24
			},
			"indices":22
		}]
	},
	{
		"name":"路牌_标题.5",
		"primitives":[{
			"attributes":{
				"POSITION":26,
				"NORMAL":27
			},
			"indices":25
		}]
	}],
	"asset":{
		"version":"2.0",
		"generator":"Maxon Cinema 4D 2024.0.0 (#200000219)"
	},
	"scenes":[{
		"nodes":[0,
		1,
		2,
		3,
		4,
		5,
		6,
		7,
		8]
	}],
	"nodes":[{
		"name":"路牌主轴",
		"mesh":0,
		"translation":[0.0,
		2.5,
		-1.528315178667429e-16],
		"rotation":[-0.7071067690849304,
		0.0,
		0.0,
		-0.7071067690849304],
		"scale":[1.0,
		1.0,
		1.0]
	},
	{
		"name":"路牌_标题",
		"mesh":1,
		"translation":[-0.004723953083157539,
		5.164407730102539,
		0.09845776855945587],
		"rotation":[0.03894316405057907,
		0.0,
		0.0,
		-0.9992414116859436],
		"scale":[1.0,
		1.0,
		1.0]
	},
	{
		"name":"路牌_标题",
		"mesh":2,
		"translation":[0.14941047132015229,
		3.0833685398101808,
		-0.16026724874973298],
		"rotation":[0.9999665021896362,
		-6.072929770281795e-17,
		6.072929770281795e-17,
		-0.00818178802728653],
		"scale":[1.0,
		1.0,
		1.0]
	},
	{
		"name":"路牌_标题",
		"mesh":3,
		"translation":[0.1475498378276825,
		3.8049535751342775,
		0.06105945631861687],
		"rotation":[0.03894316405057907,
		0.0,
		0.0,
		-0.9992414116859436],
		"scale":[1.0,
		1.0,
		1.0]
	},
	{
		"name":"路牌_标题.1",
		"mesh":4,
		"translation":[0.1193125993013382,
		4.511043071746826,
		-0.1624811738729477],
		"rotation":[0.9986114501953125,
		-0.000936733151320368,
		-0.04910631850361824,
		-0.01904912479221821],
		"scale":[1.0,
		1.0,
		1.0]
	},
	{
		"name":"路牌_标题.2",
		"mesh":5,
		"translation":[0.14269901812076569,
		1.813714623451233,
		-0.1787392497062683],
		"rotation":[0.9456942081451416,
		-0.0026587985921651127,
		-0.3249545991420746,
		-0.007737728301435709],
		"scale":[1.0,
		1.0,
		1.0]
	},
	{
		"name":"路牌_标题.3",
		"mesh":6,
		"translation":[0.25766250491142275,
		2.4727816581726076,
		-0.1196274533867836],
		"rotation":[0.9761372208595276,
		0.00177550979424268,
		0.2170003056526184,
		-0.007986814714968205],
		"scale":[1.0,
		1.0,
		1.0]
	},
	{
		"name":"路牌_标题.4",
		"mesh":7,
		"translation":[0.14153048396110536,
		1.3017674684524537,
		-0.0947350263595581],
		"rotation":[0.023106466978788377,
		-0.16325020790100099,
		0.0002106929023284465,
		-0.986314058303833],
		"scale":[1.0,
		1.0,
		1.0]
	},
	{
		"name":"路牌_标题.5",
		"mesh":8,
		"translation":[0.2694530189037323,
		0.7722669839859009,
		-0.1448356658220291],
		"rotation":[0.9761372208595276,
		0.00177550979424268,
		0.2170003056526184,
		-0.007986814714968205],
		"scale":[1.0,
		1.0,
		1.0]
	}],
	"accessors":[{
		"bufferView":0,
		"type":"SCALAR",
		"componentType":5123,
		"count":36,
		"byteOffset":0,
		"min":[0],
		"max":[35]
	},
	{
		"bufferView":1,
		"type":"VEC3",
		"componentType":5126,
		"count":36,
		"byteOffset":0,
		"min":[-0.10855191200971604,
		-0.18127566576004029,
		-2.5],
		"max":[0.10855191200971604,
		0.18127566576004029,
		2.5]
	},
	{
		"bufferView":1,
		"type":"VEC3",
		"componentType":5126,
		"count":36,
		"byteOffset":12,
		"min":[-1.0,
		-1.0,
		-1.0],
		"max":[1.0,
		1.0,
		1.0]
	},
	{
		"bufferView":1,
		"type":"VEC2",
		"componentType":5126,
		"count":36,
		"byteOffset":24,
		"min":[0.0,
		0.0],
		"max":[1.0,
		1.0]
	},
	{
		"bufferView":2,
		"type":"SCALAR",
		"componentType":5123,
		"count":408,
		"byteOffset":0,
		"min":[0],
		"max":[407]
	},
	{
		"bufferView":3,
		"type":"VEC3",
		"componentType":5126,
		"count":408,
		"byteOffset":0,
		"min":[-0.05000000074505806,
		-0.17499999701976777,
		-1.0],
		"max":[0.05000000074505806,
		0.17499999701976777,
		1.0]
	},
	{
		"bufferView":3,
		"type":"VEC3",
		"componentType":5126,
		"count":408,
		"byteOffset":12,
		"min":[-1.0,
		-1.0,
		-1.0],
		"max":[1.0,
		1.0,
		1.0]
	},
	{
		"bufferView":4,
		"type":"SCALAR",
		"componentType":5123,
		"count":408,
		"byteOffset":0,
		"min":[0],
		"max":[407]
	},
	{
		"bufferView":5,
		"type":"VEC3",
		"componentType":5126,
		"count":408,
		"byteOffset":0,
		"min":[-0.05000000074505806,
		-0.17499999701976777,
		-1.0],
		"max":[0.05000000074505806,
		0.17499999701976777,
		1.0]
	},
	{
		"bufferView":5,
		"type":"VEC3",
		"componentType":5126,
		"count":408,
		"byteOffset":12,
		"min":[-1.0,
		-1.0,
		-1.0],
		"max":[1.0,
		1.0,
		1.0]
	},
	{
		"bufferView":6,
		"type":"SCALAR",
		"componentType":5123,
		"count":408,
		"byteOffset":0,
		"min":[0],
		"max":[407]
	},
	{
		"bufferView":7,
		"type":"VEC3",
		"componentType":5126,
		"count":408,
		"byteOffset":0,
		"min":[-0.05000000074505806,
		-0.17499999701976777,
		-1.0],
		"max":[0.05000000074505806,
		0.17499999701976777,
		1.0]
	},
	{
		"bufferView":7,
		"type":"VEC3",
		"componentType":5126,
		"count":408,
		"byteOffset":12,
		"min":[-1.0,
		-1.0,
		-1.0],
		"max":[1.0,
		1.0,
		1.0]
	},
	{
		"bufferView":8,
		"type":"SCALAR",
		"componentType":5123,
		"count":408,
		"byteOffset":0,
		"min":[0],
		"max":[407]
	},
	{
		"bufferView":9,
		"type":"VEC3",
		"componentType":5126,
		"count":408,
		"byteOffset":0,
		"min":[-0.05000000074505806,
		-0.17499999701976777,
		-1.0],
		"max":[0.05000000074505806,
		0.17499999701976777,
		1.0]
	},
	{
		"bufferView":9,
		"type":"VEC3",
		"componentType":5126,
		"count":408,
		"byteOffset":12,
		"min":[-1.0,
		-1.0,
		-1.0],
		"max":[1.0,
		1.0,
		1.0]
	},
	{
		"bufferView":10,
		"type":"SCALAR",
		"componentType":5123,
		"count":408,
		"byteOffset":0,
		"min":[0],
		"max":[407]
	},
	{
		"bufferView":11,
		"type":"VEC3",
		"componentType":5126,
		"count":408,
		"byteOffset":0,
		"min":[-0.05000000074505806,
		-0.17499999701976777,
		-1.0],
		"max":[0.05000000074505806,
		0.17499999701976777,
		1.0]
	},
	{
		"bufferView":11,
		"type":"VEC3",
		"componentType":5126,
		"count":408,
		"byteOffset":12,
		"min":[-1.0,
		-1.0,
		-1.0],
		"max":[1.0,
		1.0,
		1.0]
	},
	{
		"bufferView":12,
		"type":"SCALAR",
		"componentType":5123,
		"count":408,
		"byteOffset":0,
		"min":[0],
		"max":[407]
	},
	{
		"bufferView":13,
		"type":"VEC3",
		"componentType":5126,
		"count":408,
		"byteOffset":0,
		"min":[-0.05000000074505806,
		-0.17499999701976777,
		-1.0],
		"max":[0.05000000074505806,
		0.17499999701976777,
		1.0]
	},
	{
		"bufferView":13,
		"type":"VEC3",
		"componentType":5126,
		"count":408,
		"byteOffset":12,
		"min":[-1.0,
		-1.0,
		-1.0],
		"max":[1.0,
		1.0,
		1.0]
	},
	{
		"bufferView":14,
		"type":"SCALAR",
		"componentType":5123,
		"count":408,
		"byteOffset":0,
		"min":[0],
		"max":[407]
	},
	{
		"bufferView":15,
		"type":"VEC3",
		"componentType":5126,
		"count":408,
		"byteOffset":0,
		"min":[-0.05000000074505806,
		-0.17499999701976777,
		-1.0],
		"max":[0.05000000074505806,
		0.17499999701976777,
		1.0]
	},
	{
		"bufferView":15,
		"type":"VEC3",
		"componentType":5126,
		"count":408,
		"byteOffset":12,
		"min":[-1.0,
		-1.0,
		-1.0],
		"max":[1.0,
		1.0,
		1.0]
	},
	{
		"bufferView":16,
		"type":"SCALAR",
		"componentType":5123,
		"count":408,
		"byteOffset":0,
		"min":[0],
		"max":[407]
	},
	{
		"bufferView":17,
		"type":"VEC3",
		"componentType":5126,
		"count":408,
		"byteOffset":0,
		"min":[-0.05000000074505806,
		-0.17499999701976777,
		-1.0],
		"max":[0.05000000074505806,
		0.17499999701976777,
		1.0]
	},
	{
		"bufferView":17,
		"type":"VEC3",
		"componentType":5126,
		"count":408,
		"byteOffset":12,
		"min":[-1.0,
		-1.0,
		-1.0],
		"max":[1.0,
		1.0,
		1.0]
	}],
	"bufferViews":[{
		"buffer":0,
		"byteOffset":0,
		"byteLength":72,
		"target":34963
	},
	{
		"buffer":0,
		"byteOffset":72,
		"byteLength":1152,
		"target":34962,
		"byteStride":32
	},
	{
		"buffer":1,
		"byteOffset":0,
		"byteLength":816,
		"target":34963
	},
	{
		"buffer":1,
		"byteOffset":816,
		"byteLength":9792,
		"target":34962,
		"byteStride":24
	},
	{
		"buffer":2,
		"byteOffset":0,
		"byteLength":816,
		"target":34963
	},
	{
		"buffer":2,
		"byteOffset":816,
		"byteLength":9792,
		"target":34962,
		"byteStride":24
	},
	{
		"buffer":3,
		"byteOffset":0,
		"byteLength":816,
		"target":34963
	},
	{
		"buffer":3,
		"byteOffset":816,
		"byteLength":9792,
		"target":34962,
		"byteStride":24
	},
	{
		"buffer":4,
		"byteOffset":0,
		"byteLength":816,
		"target":34963
	},
	{
		"buffer":4,
		"byteOffset":816,
		"byteLength":9792,
		"target":34962,
		"byteStride":24
	},
	{
		"buffer":5,
		"byteOffset":0,
		"byteLength":816,
		"target":34963
	},
	{
		"buffer":5,
		"byteOffset":816,
		"byteLength":9792,
		"target":34962,
		"byteStride":24
	},
	{
		"buffer":6,
		"byteOffset":0,
		"byteLength":816,
		"target":34963
	},
	{
		"buffer":6,
		"byteOffset":816,
		"byteLength":9792,
		"target":34962,
		"byteStride":24
	},
	{
		"buffer":7,
		"byteOffset":0,
		"byteLength":816,
		"target":34963
	},
	{
		"buffer":7,
		"byteOffset":816,
		"byteLength":9792,
		"target":34962,
		"byteStride":24
	},
	{
		"buffer":8,
		"byteOffset":0,
		"byteLength":816,
		"target":34963
	},
	{
		"buffer":8,
		"byteOffset":816,
		"byteLength":9792,
		"target":34962,
		"byteStride":24
	}],
	"buffers":[{
		"uri":"data:application/octet-stream;base64,",
		"byteLength":1224
	},
	{
		"uri":"data:application/octet-stream;base64,",
		"byteLength":10608
	},
	{
		"uri":"data:application/octet-stream;base64,",
		"byteLength":10608
	},
	{
		"uri":"data:application/octet-stream;base64,",
		"byteLength":10608
	},
	{
		"uri":"data:application/octet-stream;base64,",
		"byteLength":10608
	},
	{
		"uri":"data:application/octet-stream;base64,",
		"byteLength":10608
	},
	{
		"uri":"data:application/octet-stream;base64,",
		"byteLength":10608
	},
	{
		"uri":"data:application/octet-stream;base64,",
		"byteLength":10608
	},
	{
		"uri":"data:application/octet-stream;base64,",
		"byteLength":10608
	}]
}