{
	"asset":{
		"version":"2.0",
		"generator":"Maxon Cinema 4D 2024.0.0 (#200000219)"
	},
	"scenes":[{
		"nodes":[0]
	}],
	"nodes":[{
		"name":"立方体",
		"mesh":0
	}],
	"meshes":[{
		"name":"立方体",
		"primitives":[{
			"attributes":{
				"POSITION":1,
				"NORMAL":2,
				"TEXCOORD_0":3
			},
			"indices":0
		}]
	}],
	"accessors":[{
		"bufferView":0,
		"type":"SCALAR",
		"min":[0],
		"componentType":5123,
		"count":360,
		"byteOffset":0,
		"max":[359]
	},
	{
		"bufferView":1,
		"type":"VEC3",
		"min":[-100.0,
		-17.5,
		-5.0],
		"componentType":5126,
		"count":360,
		"byteOffset":0,
		"max":[100.0,
		17.5,
		5.0]
	},
	{
		"bufferView":1,
		"type":"VEC3",
		"min":[-0.4648265540599823,
		-1.0,
		-1.0],
		"componentType":5126,
		"count":360,
		"byteOffset":12,
		"max":[1.0,
		1.0,
		1.0]
	},
	{
		"bufferView":1,
		"type":"VEC2",
		"min":[0.0,
		-1.1102230246251566e-16],
		"componentType":5126,
		"count":360,
		"byteOffset":24,
		"max":[1.0,
		1.0]
	}],
	"bufferViews":[{
		"buffer":0,
		"byteOffset":0,
		"byteLength":720,
		"target":34963
	},
	{
		"buffer":0,
		"byteOffset":720,
		"byteLength":11520,
		"target":34962,
		"byteStride":32
	}],
	"buffers":[{
		"uri":"data:application/octet-stream;base64,",
		"byteLength":12240
	}]
}