{
	"asset":{
		"version":"2.0",
		"generator":"Maxon Cinema 4D 2024.0.0 (#200000219)"
	},
	"scenes":[{
		"nodes":[0,
		1,
		2,
		3,
		4,
		5,
		6,
		7]
	}],
	"nodes":[{
		"name":"路牌8",
		"mesh":0,
		"translation":[19.528095245361329,
		127.52870178222656,
		16.833051681518556],
		"rotation":[0.007913953624665738,
		0.9531575441360474,
		-0.00576745206490159,
		-0.30231571197509768],
		"scale":[1.0,
		1.0,
		1.0]
	},
	{
		"name":"路牌7",
		"mesh":1,
		"translation":[10.66080093383789,
		191.85743713378907,
		17.06305694580078],
		"rotation":[0.003715207800269127,
		-0.9999776482582092,
		-0.0055587706156075,
		0.00002065244916593656],
		"scale":[1.0,
		1.0,
		1.0]
	},
	{
		"name":"路牌6",
		"mesh":2,
		"translation":[29.397802352905275,
		259.7453308105469,
		-1.2597695589065552],
		"rotation":[-0.0012929834192618728,
		-0.8509810566902161,
		-0.0020950573962181808,
		0.5251905918121338],
		"scale":[1.0,
		1.0,
		1.0]
	},
	{
		"name":"路牌5",
		"mesh":3,
		"translation":[-5.569467067718506,
		322.45806884765627,
		28.14969253540039],
		"rotation":[0.031099384650588037,
		-0.9363709092140198,
		0.0068923430517315868,
		-0.3495637774467468],
		"scale":[1.0,
		1.0,
		1.0]
	},
	{
		"name":"路牌4_反",
		"mesh":4,
		"translation":[-10.368008613586426,
		388.5630798339844,
		17.02797508239746],
		"rotation":[0.003663727780804038,
		0.9999781250953674,
		-0.0011431088205426932,
		0.005386017262935638],
		"scale":[1.0,
		1.0,
		1.0]
	},
	{
		"name":"路牌3",
		"mesh":5,
		"translation":[17.438884735107423,
		454.82550048828127,
		17.554290771484376],
		"rotation":[0.005474250763654709,
		0.9999663233757019,
		-0.0004437976749613881,
		0.00609900988638401],
		"scale":[1.0,
		1.0,
		1.0]
	},
	{
		"name":"路牌2_反",
		"mesh":6,
		"translation":[-4.09816837310791,
		518.5370483398438,
		1.5868048667907715],
		"rotation":[0.048837605863809589,
		0.998623251914978,
		0.018300825729966165,
		0.005622849799692631],
		"scale":[1.0,
		1.0,
		1.0]
	},
	{
		"name":"路牌1主轴",
		"mesh":7,
		"translation":[0.0,
		250.0,
		-1.5283152686646797e-14],
		"rotation":[-0.7071067690849304,
		0.0,
		0.0,
		-0.7071067690849304],
		"scale":[1.0,
		1.0,
		1.0]
	}],
	"meshes":[{
		"name":"路牌8",
		"primitives":[{
			"attributes":{
				"POSITION":1,
				"NORMAL":2,
				"TEXCOORD_0":3
			},
			"indices":0
		}]
	},
	{
		"name":"路牌7",
		"primitives":[{
			"attributes":{
				"POSITION":5,
				"NORMAL":6,
				"TEXCOORD_0":7
			},
			"indices":4
		}]
	},
	{
		"name":"路牌6",
		"primitives":[{
			"attributes":{
				"POSITION":9,
				"NORMAL":10,
				"TEXCOORD_0":11
			},
			"indices":8
		}]
	},
	{
		"name":"路牌5",
		"primitives":[{
			"attributes":{
				"POSITION":13,
				"NORMAL":14,
				"TEXCOORD_0":15
			},
			"indices":12
		}]
	},
	{
		"name":"路牌4_反",
		"primitives":[{
			"attributes":{
				"POSITION":17,
				"NORMAL":18,
				"TEXCOORD_0":19
			},
			"indices":16
		}]
	},
	{
		"name":"路牌3",
		"primitives":[{
			"attributes":{
				"POSITION":21,
				"NORMAL":22,
				"TEXCOORD_0":23
			},
			"indices":20
		}]
	},
	{
		"name":"路牌2_反",
		"primitives":[{
			"attributes":{
				"POSITION":25,
				"NORMAL":26,
				"TEXCOORD_0":27
			},
			"indices":24
		}]
	},
	{
		"name":"路牌1主轴",
		"primitives":[{
			"attributes":{
				"POSITION":29,
				"NORMAL":30,
				"TEXCOORD_0":31
			},
			"indices":28
		}]
	}],
	"accessors":[{
		"bufferView":0,
		"type":"SCALAR",
		"componentType":5123,
		"count":360,
		"byteOffset":0,
		"min":[0],
		"max":[359]
	},
	{
		"bufferView":1,
		"type":"VEC3",
		"componentType":5126,
		"count":360,
		"byteOffset":0,
		"min":[-100.0,
		-17.5,
		-5.0],
		"max":[100.0,
		17.5,
		5.0]
	},
	{
		"bufferView":1,
		"type":"VEC3",
		"componentType":5126,
		"count":360,
		"byteOffset":12,
		"min":[-0.4648265540599823,
		-1.0,
		-1.0],
		"max":[1.0,
		1.0,
		1.0]
	},
	{
		"bufferView":1,
		"type":"VEC2",
		"componentType":5126,
		"count":360,
		"byteOffset":24,
		"min":[0.0,
		-1.1102230246251566e-16],
		"max":[1.0,
		1.0]
	},
	{
		"bufferView":2,
		"type":"SCALAR",
		"componentType":5123,
		"count":360,
		"byteOffset":0,
		"min":[0],
		"max":[359]
	},
	{
		"bufferView":3,
		"type":"VEC3",
		"componentType":5126,
		"count":360,
		"byteOffset":0,
		"min":[-100.0,
		-17.5,
		-5.0],
		"max":[100.0,
		17.5,
		5.0]
	},
	{
		"bufferView":3,
		"type":"VEC3",
		"componentType":5126,
		"count":360,
		"byteOffset":12,
		"min":[-0.4648265540599823,
		-1.0,
		-1.0],
		"max":[1.0,
		1.0,
		1.0]
	},
	{
		"bufferView":3,
		"type":"VEC2",
		"componentType":5126,
		"count":360,
		"byteOffset":24,
		"min":[0.0,
		-1.1102230246251566e-16],
		"max":[1.0,
		1.0]
	},
	{
		"bufferView":4,
		"type":"SCALAR",
		"componentType":5123,
		"count":360,
		"byteOffset":0,
		"min":[0],
		"max":[359]
	},
	{
		"bufferView":5,
		"type":"VEC3",
		"componentType":5126,
		"count":360,
		"byteOffset":0,
		"min":[-100.0,
		-17.5,
		-5.0],
		"max":[100.0,
		17.5,
		5.0]
	},
	{
		"bufferView":5,
		"type":"VEC3",
		"componentType":5126,
		"count":360,
		"byteOffset":12,
		"min":[-0.4648265540599823,
		-1.0,
		-1.0],
		"max":[1.0,
		1.0,
		1.0]
	},
	{
		"bufferView":5,
		"type":"VEC2",
		"componentType":5126,
		"count":360,
		"byteOffset":24,
		"min":[0.0,
		-1.1102230246251566e-16],
		"max":[1.0,
		1.0]
	},
	{
		"bufferView":6,
		"type":"SCALAR",
		"componentType":5123,
		"count":360,
		"byteOffset":0,
		"min":[0],
		"max":[359]
	},
	{
		"bufferView":7,
		"type":"VEC3",
		"componentType":5126,
		"count":360,
		"byteOffset":0,
		"min":[-100.0,
		-17.5,
		-5.0],
		"max":[100.0,
		17.5,
		5.0]
	},
	{
		"bufferView":7,
		"type":"VEC3",
		"componentType":5126,
		"count":360,
		"byteOffset":12,
		"min":[-0.4648265540599823,
		-1.0,
		-1.0],
		"max":[1.0,
		1.0,
		1.0]
	},
	{
		"bufferView":7,
		"type":"VEC2",
		"componentType":5126,
		"count":360,
		"byteOffset":24,
		"min":[0.0,
		-1.1102230246251566e-16],
		"max":[1.0,
		1.0]
	},
	{
		"bufferView":8,
		"type":"SCALAR",
		"componentType":5123,
		"count":300,
		"byteOffset":0,
		"min":[0],
		"max":[299]
	},
	{
		"bufferView":9,
		"type":"VEC3",
		"componentType":5126,
		"count":300,
		"byteOffset":0,
		"min":[-100.0,
		-17.5,
		-5.0],
		"max":[100.0,
		17.5,
		5.0]
	},
	{
		"bufferView":9,
		"type":"VEC3",
		"componentType":5126,
		"count":300,
		"byteOffset":12,
		"min":[-1.0,
		-1.0,
		-1.0],
		"max":[0.4008139371871948,
		1.0,
		1.0]
	},
	{
		"bufferView":9,
		"type":"VEC2",
		"componentType":5126,
		"count":300,
		"byteOffset":24,
		"min":[0.0,
		-6.661338147750939e-16],
		"max":[1.0,
		1.0]
	},
	{
		"bufferView":10,
		"type":"SCALAR",
		"componentType":5123,
		"count":360,
		"byteOffset":0,
		"min":[0],
		"max":[359]
	},
	{
		"bufferView":11,
		"type":"VEC3",
		"componentType":5126,
		"count":360,
		"byteOffset":0,
		"min":[-100.0,
		-17.5,
		-5.0],
		"max":[100.0,
		17.5,
		5.0]
	},
	{
		"bufferView":11,
		"type":"VEC3",
		"componentType":5126,
		"count":360,
		"byteOffset":12,
		"min":[-0.4648265540599823,
		-1.0,
		-1.0],
		"max":[1.0,
		1.0,
		1.0]
	},
	{
		"bufferView":11,
		"type":"VEC2",
		"componentType":5126,
		"count":360,
		"byteOffset":24,
		"min":[0.0,
		-1.1102230246251566e-16],
		"max":[1.0,
		1.0]
	},
	{
		"bufferView":12,
		"type":"SCALAR",
		"componentType":5123,
		"count":300,
		"byteOffset":0,
		"min":[0],
		"max":[299]
	},
	{
		"bufferView":13,
		"type":"VEC3",
		"componentType":5126,
		"count":300,
		"byteOffset":0,
		"min":[-100.0,
		-17.5,
		-5.0],
		"max":[100.0,
		17.5,
		5.0]
	},
	{
		"bufferView":13,
		"type":"VEC3",
		"componentType":5126,
		"count":300,
		"byteOffset":12,
		"min":[-1.0,
		-1.0,
		-1.0],
		"max":[0.4008139371871948,
		1.0,
		1.0]
	},
	{
		"bufferView":13,
		"type":"VEC2",
		"componentType":5126,
		"count":300,
		"byteOffset":24,
		"min":[1.6653345369377349e-16,
		4.829470157119431e-15],
		"max":[1.0,
		1.0]
	},
	{
		"bufferView":14,
		"type":"SCALAR",
		"componentType":5123,
		"count":996,
		"byteOffset":0,
		"min":[0],
		"max":[995]
	},
	{
		"bufferView":15,
		"type":"VEC3",
		"componentType":5126,
		"count":996,
		"byteOffset":0,
		"min":[-17.5,
		-12.5,
		-250.0],
		"max":[17.5,
		12.5,
		250.0]
	},
	{
		"bufferView":15,
		"type":"VEC3",
		"componentType":5126,
		"count":996,
		"byteOffset":12,
		"min":[-0.9904966950416565,
		-0.9917945861816406,
		-0.990496814250946],
		"max":[0.9904966950416565,
		0.9917945861816406,
		0.990496814250946]
	},
	{
		"bufferView":15,
		"type":"VEC2",
		"componentType":5126,
		"count":996,
		"byteOffset":24,
		"min":[0.0,
		0.0],
		"max":[1.0,
		1.0]
	}],
	"bufferViews":[{
		"buffer":0,
		"byteOffset":0,
		"byteLength":720,
		"target":34963
	},
	{
		"buffer":0,
		"byteOffset":720,
		"byteLength":11520,
		"target":34962,
		"byteStride":32
	},
	{
		"buffer":1,
		"byteOffset":0,
		"byteLength":720,
		"target":34963
	},
	{
		"buffer":1,
		"byteOffset":720,
		"byteLength":11520,
		"target":34962,
		"byteStride":32
	},
	{
		"buffer":2,
		"byteOffset":0,
		"byteLength":720,
		"target":34963
	},
	{
		"buffer":2,
		"byteOffset":720,
		"byteLength":11520,
		"target":34962,
		"byteStride":32
	},
	{
		"buffer":3,
		"byteOffset":0,
		"byteLength":720,
		"target":34963
	},
	{
		"buffer":3,
		"byteOffset":720,
		"byteLength":11520,
		"target":34962,
		"byteStride":32
	},
	{
		"buffer":4,
		"byteOffset":0,
		"byteLength":600,
		"target":34963
	},
	{
		"buffer":4,
		"byteOffset":600,
		"byteLength":9600,
		"target":34962,
		"byteStride":32
	},
	{
		"buffer":5,
		"byteOffset":0,
		"byteLength":720,
		"target":34963
	},
	{
		"buffer":5,
		"byteOffset":720,
		"byteLength":11520,
		"target":34962,
		"byteStride":32
	},
	{
		"buffer":6,
		"byteOffset":0,
		"byteLength":600,
		"target":34963
	},
	{
		"buffer":6,
		"byteOffset":600,
		"byteLength":9600,
		"target":34962,
		"byteStride":32
	},
	{
		"buffer":7,
		"byteOffset":0,
		"byteLength":1992,
		"target":34963
	},
	{
		"buffer":7,
		"byteOffset":1992,
		"byteLength":31872,
		"target":34962,
		"byteStride":32
	}],
	"buffers":[{
		"uri":"data:application/octet-stream;base64,",
		"byteLength":12240
	},
	{
		"uri":"data:application/octet-stream;base64,",
		"byteLength":12240
	},
	{
		"uri":"data:application/octet-stream;base64,",
		"byteLength":12240
	},
	{
		"uri":"data:application/octet-stream;base64,",
		"byteLength":12240
	},
	{
		"uri":"data:application/octet-stream;base64,",
		"byteLength":10200
	},
	{
		"uri":"data:application/octet-stream;base64,",
		"byteLength":12240
	},
	{
		"uri":"data:application/octet-stream;base64,",
		"byteLength":10200
	},
	{
		"uri":"data:application/octet-stream;base64,",
		"byteLength":33864
	}]
}