<?xml version="1.0" encoding="UTF-8"?>
<svg id="_图层_2" data-name="图层 2" xmlns="http://www.w3.org/2000/svg"  width="193.48" height="852.87" viewBox="0 0 193.48 852.87">
  <defs>
    <style>
      .cls-1 {
        stroke-width: 5px;
      }

      .cls-1, .cls-2, .cls-3, .cls-4, .cls-5, .cls-6, .cls-7, .cls-8, .cls-9, .cls-10 {
        stroke: #000;
      }

      .cls-1, .cls-2, .cls-3, .cls-4, .cls-5, .cls-6, .cls-7, .cls-8, .cls-10 {
        stroke-linecap: round;
      }

      .cls-1, .cls-2, .cls-3, .cls-4, .cls-6, .cls-7, .cls-8, .cls-9 {
        stroke-miterlimit: 10;
      }

      .cls-1, .cls-6, .cls-7, .cls-10 {
        fill: none;
      }

      .cls-3, .cls-5, .cls-6 {
        stroke-width: 10px;
      }

      .cls-4 {
        stroke-width: 12px;
      }

      .cls-5, .cls-10 {
        stroke-linejoin: round;
      }

      .cls-7 {
        stroke-width: 3px;
      }

      .cls-8 {
        stroke-width: 2px;
      }

      .cls-9, .cls-10 {
        stroke-width: 20px;
      }
    </style>
  </defs>
  <g id="_顶部头子" data-name="顶部头子">
    <line class="cls-4" x1="80.05" y1="6" x2="113.87" y2="6"/>
    <ellipse class="cls-2" cx="96.96" cy="22.21" rx="27.66" ry="12.84"/>
    <line class="cls-4" x1="80.05" y1="39.09" x2="113.87" y2="39.09"/>
  </g>
  <g id="_灯盖" data-name="灯盖">
    <path class="cls-3" d="m186.69,116.87H6.79c-1.43,0-2.28,1.59-1.49,2.78l1.62,2.43c.33.5.89.8,1.49.8h176.66c.6,0,1.15-.3,1.49-.8l1.62-2.43c.79-1.19-.06-2.78-1.49-2.78Z"/>
    <path class="cls-8" d="m134.85,69.1H56.99c-2.46,0-4.66,1.51-5.55,3.8l-12.26,31.51c-1.52,3.92,1.38,8.14,5.58,8.12l104.43-.51c4.34-.02,7.2-4.52,5.38-8.46l-14.32-31c-.97-2.11-3.09-3.46-5.41-3.46Z"/>
    <path class="cls-8" d="m104.12,43.87h-14.32c-3.99,0-7.45,2.78-8.32,6.68l-2.43,10.96c-1.18,5.32,2.87,10.36,8.32,10.36h19.18c5.45,0,9.5-5.04,8.32-10.36l-2.43-10.96c-.86-3.9-4.32-6.68-8.32-6.68Z"/>
  </g>
  <g id="_灯罩" data-name="灯罩">
    <path class="cls-6" d="m137.59,128.05H55.89c-11.77,0-20.56,10.84-18.11,22.36l17.51,82.53c1.81,8.56,9.37,14.67,18.11,14.67h46.69c8.75,0,16.3-6.12,18.11-14.67l17.51-82.53c2.44-11.52-6.34-22.36-18.11-22.36Z"/>
  </g>
  <g id="_灯-临摹" data-name="灯-临摹">
    <path class="cls-1" d="m86.44,230.04c-.84-1.81-1.96-3.34-2.28-5.25-.14-.88-.1-2.26-.18-3.23-.04-1.18-.32-2.2-.69-3.25-.67-1.98-1.52-3.6-2.52-5.41-1.07-1.93-2.22-4.16-3.28-6.15-.89-1.67-1.72-3.23-2.37-4.8-.79-1.86-1.46-4.4-1.66-6.15-.32-2.23-.16-4.58.11-6.34.56-3.79,1.23-6.53,3.86-10.72,4.25-6.61,11.89-10.85,19.13-10.88"/>
    <path class="cls-1" d="m106.78,230.04c.84-1.81,1.96-3.34,2.28-5.25.14-.88.1-2.26.18-3.23.04-1.18.32-2.2.69-3.25.67-1.98,1.52-3.6,2.52-5.41,1.07-1.93,2.22-4.16,3.28-6.15.89-1.67,1.72-3.23,2.37-4.8.79-1.86,1.46-4.4,1.66-6.15.32-2.23.16-4.58-.11-6.34-.56-3.79-1.23-6.53-3.86-10.72-4.25-6.61-11.89-10.85-19.13-10.88"/>
    <path class="cls-1" d="m86.63,230.12c6.99,4.1,13.23,4.02,20.22,0"/>
    <path class="cls-1" d="m86.63,233.29c6.99,4.1,13.23,4.02,20.22,0"/>
    <path class="cls-1" d="m86.63,236.46c6.99,4.1,13.23,4.02,20.22,0"/>
    <path class="cls-1" d="m86.63,239.47c6.99,4.1,13.23,4.02,20.22,0"/>
    <path class="cls-1" d="m93.19,242.79l1.37,1.89c1.1,1.51,3.37,1.49,4.44-.04l1.28-1.84"/>
    <path class="cls-1" d="m94.49,176.37l-.34.08c-5.06,1.19-9.11,4.96-10.66,9.92h0"/>
    <circle class="cls-1" cx="80.99" cy="192.87" r=".5"/>
    <g id="_关" data-name="关">
      <line class="cls-7" x1="90.04" y1="199.48" x2="99.16" y2="190.36"/>
      <line class="cls-7" x1="89.99" y1="199.53" x2="102.89" y2="199.53"/>
      <line class="cls-7" x1="93.87" y1="209.06" x2="102.99" y2="199.93"/>
    </g>
  </g>
  <g id="_灯柱" data-name="灯柱">
    <line class="cls-9" x1="96.74" y1="251.87" x2="96.74" y2="851.87"/>
  </g>
  <g id="_底部灯座" data-name="底部灯座">
    <path class="cls-5" d="m154.77,847.87H38.71c-4.09,0-6.75-3.58-4.93-6.64l7.06-11.82c.93-1.56,2.84-2.54,4.93-2.54h101.93c2.09,0,4,.99,4.93,2.54l7.06,11.82c1.82,3.05-.84,6.64-4.93,6.64Z"/>
    <line class="cls-10" x1="87.74" y1="627.87" x2="105.74" y2="627.87"/>
    <path class="cls-5" d="m102.24,772.87h-11c-6.6,0-7-5.4-7-12l-7-107c0-6.6,7.4-12,14-12h11c6.6,0,14,5.4,14,12l-7,107c0,6.6-.4,12-7,12Z"/>
    <line class="cls-10" x1="92.24" y1="609.87" x2="101.24" y2="609.87"/>
    <line class="cls-10" x1="87.74" y1="785.87" x2="105.74" y2="785.87"/>
    <rect class="cls-5" x="62.53" y="798.87" width="68.41" height="29" rx="9" ry="9"/>
  </g>
</svg>
