<?xml version="1.0" encoding="UTF-8"?>
<svg id="_图层_2" data-name="图层 2" xmlns="http://www.w3.org/2000/svg" viewBox="0 0 704 321.25">
  <defs>
    <style>
      .cls-1 {
        stroke-width: 15px;
      }

      .cls-1, .cls-2 {
        fill: none;
        stroke: #333;
        stroke-miterlimit: 10;
      }

      .cls-1, .cls-2, .cls-3 {
        stroke-linecap: round;
      }

      .cls-4 {
        fill: #666;
        stroke-width: 0px;
      }

      .cls-5, .cls-6, .cls-3 {
        stroke: #000;
        stroke-linejoin: round;
      }

      .cls-5, .cls-3 {
        fill: #333;
        stroke-width: .5px;
      }

      .cls-6 {
        stroke-width: .25px;
      }

      .cls-2 {
        stroke-width: 6px;
      }
    </style>
  </defs>
  <g id="_椅脚" data-name="椅脚">
    <path class="cls-1" d="m42.5,313.75c.55-4.95-17-62,31-142,7.65-12.75,32,12,34,44"/>
    <path class="cls-1" d="m661.5,313.75c-.55-4.95,17-62-31-142-7.65-12.75-32,12-34,44"/>
  </g>
  <g id="_扶手-上" data-name="扶手-上">
    <path class="cls-3" d="m81.86.37v143.43l7.95-3.05V.25c-2.65.04-5.3.07-7.95.12Z"/>
    <path class="cls-5" d="m70.72.62v143.18h11.13V.37c-3.71.07-7.42.15-11.13.25Z"/>
    <path class="cls-3" d="m622.14.37v143.43s-7.95-3.05-7.95-3.05V.25c2.65.04,5.3.07,7.95.12Z"/>
    <path class="cls-5" d="m633.28.62v143.18h-11.13V.37c3.71.07,7.42.15,11.13.25Z"/>
  </g>
  <g id="_扶手-中" data-name="扶手-中">
    <path class="cls-3" d="m39.16,252.21l42.56-108.43h-11.34l-44.47,108.29c4.41.06,8.83.11,13.24.15Z"/>
    <path class="cls-3" d="m46.15,252.25l43.66-111.51-8.1,3.03-42.56,108.43c2.33.02,4.66.03,7,.04Z"/>
    <path class="cls-3" d="m664.84,252.21l-42.56-108.43h11.34s44.47,108.29,44.47,108.29c-4.41.06-8.83.11-13.24.15Z"/>
    <path class="cls-3" d="m657.85,252.25l-43.66-111.51,8.1,3.03,42.56,108.43c-2.33.02-4.66.03-7,.04Z"/>
  </g>
  <g id="_板8" data-name="板8">
    <path class="cls-4" d="m58.36,218.64h296.91c.95,0,1.73.67,1.73,1.5v18.38c0,.83-.77,1.5-1.73,1.5H50.84c-1.19,0-2.03-1.03-1.63-2.01l7.52-18.38c.25-.6.9-1,1.63-1Z"/>
    <path class="cls-4" d="m645.64,218.64h-296.91c-.95,0-1.73.67-1.73,1.5v18.38c0,.83.77,1.5,1.73,1.5h304.43c1.19,0,2.03-1.03,1.63-2.01l-7.52-18.38c-.25-.6-.9-1-1.63-1Z"/>
  </g>
  <g id="_板7" data-name="板7">
    <path class="cls-4" d="m67.62,194.21h287.71c.92,0,1.67.67,1.67,1.5v18.38c0,.83-.75,1.5-1.67,1.5H60.33c-1.16,0-1.96-1.03-1.58-2.01l7.29-18.38c.24-.6.87-1,1.58-1Z"/>
    <path class="cls-4" d="m636.38,194.21h-287.71c-.92,0-1.67.67-1.67,1.5v18.38c0,.83.75,1.5,1.67,1.5h295c1.16,0,1.96-1.03,1.58-2.01l-7.29-18.38c-.24-.6-.87-1-1.58-1Z"/>
  </g>
  <g id="_板6" data-name="板6">
    <path class="cls-4" d="m76.87,169.77h278.51c.89,0,1.62.67,1.62,1.5v18.38c0,.83-.73,1.5-1.62,1.5H69.82c-1.12,0-1.9-1.03-1.53-2.01l7.06-18.38c.23-.6.84-1,1.53-1Z"/>
    <path class="cls-4" d="m627.13,169.77h-278.51c-.89,0-1.62.67-1.62,1.5v18.38c0,.83.73,1.5,1.62,1.5h285.56c1.12,0,1.9-1.03,1.53-2.01l-7.06-18.38c-.23-.6-.84-1-1.53-1Z"/>
  </g>
  <g id="_板5" data-name="板5">
    <path class="cls-4" d="m86.13,145.33h269.3c.86,0,1.57.67,1.57,1.5v18.38c0,.83-.7,1.5-1.57,1.5H79.31c-1.08,0-1.84-1.03-1.47-2.01l6.82-18.38c.22-.6.81-1,1.47-1Z"/>
    <path class="cls-4" d="m617.87,145.33h-269.3c-.86,0-1.57.67-1.57,1.5v18.38c0,.83.7,1.5,1.57,1.5h276.13c1.08,0,1.84-1.03,1.47-2.01l-6.82-18.38c-.22-.6-.81-1-1.47-1Z"/>
  </g>
  <g id="_板4" data-name="板4">
    <polygon class="cls-4" points="87.22 108.67 354.26 108.68 354.26 136.16 89.34 136.16 87.22 135.45 87.22 108.67"/>
    <polygon class="cls-6" points="87.22 135.25 90.08 136.16 354.26 136.16 354.26 135.25 87.22 135.25"/>
    <polygon class="cls-4" points="616.78 108.67 349.74 108.68 349.74 136.16 614.66 136.16 616.78 135.45 616.78 108.67"/>
    <polygon class="cls-6" points="616.78 135.25 613.92 136.16 349.74 136.16 349.74 135.25 616.78 135.25"/>
  </g>
  <g id="_板3" data-name="板3">
    <polygon class="cls-4" points="87.22 75.07 354.26 75.07 354.26 101.91 87.22 101.91 87.22 75.07"/>
    <polygon class="cls-6" points="87.22 101.91 90.08 102.79 354.26 102.79 354.26 101.91 87.22 101.91"/>
    <polygon class="cls-4" points="616.78 75.07 349.74 75.07 349.74 101.91 616.78 101.91 616.78 75.07"/>
    <polygon class="cls-6" points="616.78 101.91 613.92 102.79 349.74 102.79 349.74 101.91 616.78 101.91"/>
  </g>
  <g id="_板2" data-name="板2">
    <polygon class="cls-4" points="87.22 41.46 354.26 41.47 354.26 68.3 87.22 68.3 87.22 41.46"/>
    <polygon class="cls-6" points="87.22 68.3 90.08 69.19 354.26 69.19 354.26 68.3 87.22 68.3"/>
    <polygon class="cls-4" points="616.78 41.46 349.74 41.47 349.74 68.3 616.78 68.3 616.78 41.46"/>
    <polygon class="cls-6" points="616.78 68.3 613.92 69.19 349.74 69.19 349.74 68.3 616.78 68.3"/>
  </g>
  <g id="_板1" data-name="板1">
    <polygon class="cls-4" points="87.22 7.86 354.26 7.87 354.26 34.7 87.22 34.7 87.22 7.86"/>
    <polygon class="cls-6" points="87.22 34.7 90.08 35.59 354.26 35.59 354.26 34.7 87.22 34.7"/>
    <polygon class="cls-4" points="616.78 7.86 349.74 7.87 349.74 34.7 616.78 34.7 616.78 7.86"/>
    <polygon class="cls-6" points="616.78 34.7 613.92 35.59 349.74 35.59 349.74 34.7 616.78 34.7"/>
  </g>
  <g id="_扶手" data-name="扶手">
    <path class="cls-2" d="m11.93,207.9c-4.39-2-1.55-24.98,2.07-25.98,5.88-1.63,5.3,33.47,2.33,44.97-1.55,6-2.84,7-5.96,5.3-5.47-2.97-13.57-38.17.34-76.36,16.15-44.34,43.79-63.66,65.29-65.59"/>
    <path class="cls-2" d="m26.77,209.98s.51,6.33,3,6.33c1.5,0,2.42-4.22,3-7.92,1-6.33-.19-20.42-2.53-24.82-2.07-3.88-4.39-.06-5.71,4.93-2.97,11.27-2.94,36.63,0,49.34,3.23,13.98,8.92,8.02,11.98,0,7.9-20.71,14.28-86.46,4.56-93.74-3.44-2.58-8.81,3.07-9.7,19.73-.61,11.49.28,23.96,3.9,23.96,4.01,0,3.5-15.83,2-20.59"/>
    <path class="cls-2" d="m36,113.08c19-17.12,28,3.8,40,26.63"/>
    <path class="cls-2" d="m692.07,207.9c4.39-2,1.55-24.98-2.07-25.98-5.88-1.63-5.3,33.47-2.33,44.97,1.55,6,2.84,7,5.96,5.3,5.47-2.97,13.57-38.17-.34-76.36-16.15-44.34-43.79-63.66-65.29-65.59"/>
    <path class="cls-2" d="m677.23,209.98s-.51,6.33-3,6.33c-1.5,0-2.42-4.22-3-7.92-1-6.33.19-20.42,2.53-24.82,2.07-3.88,4.39-.06,5.71,4.93,2.97,11.27,2.94,36.63,0,49.34-3.23,13.98-8.92,8.02-11.98,0-7.9-20.71-14.28-86.46-4.56-93.74,3.44-2.58,8.81,3.07,9.7,19.73.61,11.49-.28,23.96-3.9,23.96-4.01,0-3.5-15.83-2-20.59"/>
    <path class="cls-2" d="m668,113.08c-19-17.12-28,3.8-40,26.63"/>
  </g>
</svg>