<?xml version="1.0" encoding="UTF-8"?>
<svg id="_图层_2" data-name="图层 2" xmlns="http://www.w3.org/2000/svg" viewBox="0 0 165.13 312.72">
  <defs>
    <style>
      .cls-1 {
        stroke-width: 0px;
      }
    </style>
  </defs>
  <g id="_图层_16" data-name="图层 16">
    <path class="cls-1" d="m165.13,307.59l-5.23-8.23-8.3-9.91-7.41-6.17v-7.47l7.85-2.66v-31.37l-.64-9.92.64-8.4v-36.64l-5.23-7.85-5.23-13.09-20.94-26.17,2.62-2.62,7.85-5.23,5.23-5.23,2.62-7.81v-10.51l-2.62-13.09-2.62-15.7-2.62-13.09-5.23-7.85-15.7-7.85-7.85-7.85-5.23-2.62-2.62-5.23,1.34-2.62,1.28-2.62,3.27-2.5v-4.18l-3.27-1.64,1-6.11-1-6.51-1.62-2.62-3.3-3.35-4.05-1.88-4.96-1h-4.52l-6.11,1.62-5.23,4.62-1.62,7.85v9.83l-2.62,1.64v4.23l2.62,2.62h2.62l5.23,5.23s0,5.23-2.62,5.23c-2.63,2.21-3.83,2.62-3.83,2.62l-4.02,2.62-15.7,7.85-5.23,7.85-2.62,10.47-5.23,13.09v36.64l7.85,5.23,7.85,15.7-5.23,2.62-7.85,13.09-7.85,7.85-5.23,13.09-5.23,15.7v10.47l2.62,18.32v28.79l2.62,15.7,2.62,5.23v5.23l-2.62,2.62-7.85,5.23-10.47,7.85-5.48,7.2,1.2,5.05,5.41,3.32,9.35-.1,10.47-5.85,15.7-10.75,5.91-4.52-.68-4.81-2.62-5.23-2.62-2.62v-7.85h5.23l2.62-2.62v-28.79l-2.62-18.32v-15.7l-2.62-5.23,2.62-5.23,10.47-7.85,5.23-10.47h7.85l5.23,2.62,7.85,5.23,2.62-2.62h5.23v-5.23l2.62-5.23,7.85,2.62,15.7,15.7,6.54,7.99v19.65l1.31,24.7v10.47l-2.62,10.47,1.31,10.81,3.93,2.27v5.23l-2.62,5.23v7.85l13.09,10.47,7.85,5.23,5.82,2.62,6.94.27,4.07-1.82,1.5-3.3ZM56.29,101.44c0,.05-.02.11-.02.16,0,.15,0,.29,0,.44.01.3-.01.61-.1.91,0,.02-.02.07-.04.12.06.15.1.31.13.46.09.46.02.87-.07,1.31-.02.08-.03.17-.05.25-.01.06-.02.12-.03.19,0-.06.02-.12.02-.17-.05.06,0,.27-.02.34,0,.08,0,.05-.02-.05-.01-.02-.04-.07-.08-.17.16.38.2.75.1,1.09.23.5.23,1.05-.12,1.5-.31.4-.94.68-1.45.49-.1-.03-.45-.21-.63-.21-.03,0-.05,0-.08,0-.01,0-.02,0-.04,0-.53.12-1.12.29-1.65.09-.66-.25-1.23-.95-.96-1.7,0-.03.04-.13.07-.21.03-.13.02-.29.02-.41,0-.32-.03-.64-.03-.96-.01-.68.01-1.36-.03-2.03-.04-.73-.17-1.41.22-2.08.14-.23.33-.41.54-.57.07-.18.16-.35.31-.48.64-.56,1.51-1.03,2.39-.99.76.04,1.41.51,1.63,1.24.14.47.03,1-.03,1.46Zm63.07,6.03c-.05.54-.29.98-.8,1.2-.5.21-1.04.09-1.43-.27-.27-.26-.43-.59-.61-.91-.12-.22-.21-.43-.31-.66,0-.02-.05-.1-.05-.12-.02-.03-.05-.08-.06-.09-.2-.34-.28-.7-.41-1.06.07.19,0,.06-.06-.05-.04-.07-.08-.14-.12-.22-.08-.15-.16-.3-.23-.45-.35-.74-.62-1.51-.84-2.3-.21-.77-.54-1.5-.5-2.32,0-.06.03-.12.04-.18,0-.2.05-.4.15-.59.32-.61,1.21-.84,1.79-.47,0,0,0,0,0,0,.13-.03.27-.06.41-.07.42-.02.85.1,1.19.34.34.24.61.54.89.85.52.17.9.64.91,1.21,0,.12-.02.24-.04.36.09.42.05.85.05,1.28,0,.49,0,.98,0,1.46.02,1,.12,2.05.02,3.05Z"/>
  </g>
</svg>