<?xml version="1.0" encoding="UTF-8"?>
<svg id="_图层_2" data-name="图层 2" xmlns="http://www.w3.org/2000/svg" viewBox="0 0 252.65 451.5">
  <defs>
    <style>
      .cls-1 {
        stroke: #000;
        stroke-miterlimit: 10;
      }
    </style>
  </defs>
  <g id="_图层_15" data-name="图层 15">
    <path class="cls-1" d="m169.55,2.44h-9.05s-4.54-1.94-4.54-1.94h-13.59s-4.85,2.91-4.85,2.91l-8.74,3.88-2.91,6.8-3.88,5.83v10.13s0,4.43,0,4.43l.97,5.83,1.94,5.83,2.91,2.91.97,4.85-.97,3.88-1.94,4.85-1.94.97-3.88-1.94-3.88,2.91-10.68,10.68-6.8,7.77-9.71,9.71-3.88,2.91-2.91,3.88-1.94,4.85,2.91,3.88,1.94,2.91,2.91,2.91.97,2.91-.97,18.45v15.53s0,14.56,0,14.56l-1.94,25.24.97,6.8,1.94,8.74v23.3s1.94,2.91,1.94,2.91v6.8s1.94,4.85,1.94,4.85v11.65s2.91,4.85,2.91,4.85v2.91s-1.94,4.85-1.94,4.85l-.97,33.98-2.91,6.8-4.85,7.77-25.24,19.42-3.88,6.8-7.77,8.74-4.85,8.74-3.88,2.91-4.85,3.88-2.91,6.8-5.83,8.74-4.85,6.8-5.83,2.91-5.83,5.83-3.88,5.83-2.91,4.85-.97,1.94-.97,1.94,4.85,4.85,11.65,8.74,9.71,6.8,5.83,5.83,8.74,3.88,7.77,1.94,10.68-.97,5.83-2.91v-2.91s-6.8-4.85-6.8-4.85l-5.83-2.91-3.88-8.74-1.94-7.77-.97-9.71-1.94-1.94,5.83-7.77,5.83-6.8v-3.88s6.8-4.85,6.8-4.85l10.68-9.71,7.77-7.77,10.68-7.77,9.71-6.8,8.74-5.83,7.77-6.8,4.85-2.91v-8.74s2.91-6.8,2.91-6.8l3.88-6.8,2.91-4.85,1.94-1.94h.97s4.85,3.88,4.85,3.88l3.88,5.83,6.8,6.8,5.83,5.83v7.77s-1.94,9.71-1.94,9.71l.97,9.71.97,8.74,2.91,8.74,6.8,18.45,1.94,3.88-1.94,2.91.97,4.85,3.88,3.88s.97,2.91.97,3.88.97,4.85.97,4.85l4.85-.97s.97,7.77.97,7.77l.97.97-1.94,7.77-.97,8.74,1.94,5.83.97,3.93.97,3.83,21.36.97s4.85-1.94,5.83-1.94,10.68-1.94,10.68-1.94l10.68-.97,6.8-1.94,6.8-2.91,6.8-4.85,1.94-3.88-1.94-2.91-4.85-2.91-9.71.97-8.74-1.94-7.77-5.83-5.83-4.85-9.71-2.91-3.88-10.68.97-3.88-1.94-3.88-5.83-25.24-2.91-15.53v-31.07s-.97-9.71-.97-9.71l-8.74-18.45-3.88-21.36-1.94-10.68-6.8-13.59-1.94-8.74s-.97-.97-.97-1.94.97-5.83.97-6.8,5.83-.97,6.8-.97,2.91-1.94,2.91-1.94v-10.68s.97-20.39.97-20.39l-1.94-25.24-.97-22.33-2.91-21.36-2.91-14.56-1.94-5.83-3.88-5.83v-4.85s-2.91-2.91-2.91-2.91l-7.77-5.11-.97.26.97-4.85,2.91-10.68,2.91-3.88,5.83-2.91,3.88-3.88,1.94-4.85.97-3.88.97-2.91.97-6.8-.97-4.85.97-2.91.97-2.91v-7.77c0-.97-.97-4.85-.97-4.85l-1.94-2.91v-2.91s.97-4.85.97-4.85l.97-4.85-1.94-2.91Z"/>
  </g>
</svg>