<?xml version="1.0" encoding="UTF-8"?>
<svg id="_图层_2" data-name="图层 2" xmlns="http://www.w3.org/2000/svg" viewBox="0 0 251.48 450.46">
  <defs>
    <style>
      .cls-1 {
        stroke-width: 0px;
      }
    </style>
  </defs>
  <g id="_图层_15" data-name="图层 15">
    <path class="cls-1" d="m251.48,427.66l-4.44,4.38-4.44,2.19-6.77,3.71-8.61,1.29-13.46,1.58-11.09,2.19h-13.31l-1.82-6.86-3.33-7.39-.62-6.36-5.32-10.09-4.44-6.58-11.09-21.92-2.22-6.58v-6.58l-1.69-5.96-4.97-7.19-8.87-8.77-4.44-8.77-4.44-10.96-2.22-4.38-8.76-24.6-4.81-3.81-5.35,9.82-7.85,18.46-6.54,7.06-22.98,20.3-9.56,12.3-14.84,20.76-1.57,3.95-3.53,1.84-5.32,9.82,4.26,9.01.27,7.43.84,9.47,4.33,7.67,7.14,6.47,1.06,5.44-.87,3.33-4.17,1.12-8.07-1.8-6.65-3.07-5.94-3.68-7.76-7.19s-7.87-5.81-8.52-6.53c-.64-.7-5.28-2.98-5.28-2.98l-13.42-16.25,2.2-3.22,2.26-3.29,3.04-5.22,7.1-5.02,7.03-3.64.07-1.36,5.12-5.79-3.95-2.92s2.24-3.24,2.95-3.88c.73-.64,2.24-3.24,2.24-3.24l.31-5.37,2.95-3.9,3.44-.48,1.57-3.95,9.16-17.04,4.53-7.85,5.83-6.42,6.54-7.06,8.45-4.93,5.75-5.06.47-8.07.53-9.43.51-2,.8-26.95,1.93-4.76v-2.87l-2.91-4.76v-11.42l-1.91-4.76v-6.67l-1.93-2.87v-22.85l-1.93-8.57-.98-6.67,1.93-24.77v-29.51l.98-18.11-.98-2.85-2.88-2.85-1.93-2.87-2.88-3.81,1.93-4.76,2.88-3.79,3.86-2.87,9.63-9.52,6.74-7.63,10.6-10.48,3.86-2.85,3.84,1.91,1.93-.94,1.93-4.78.98-3.79-.98-4.78-2.88-2.85-1.93-5.72-.95-5.7v-14.29l3.84-5.7,2.91-6.66,8.67-3.81,4.81-2.87h13.49l4.5,1.91h8.98l1.93,2.87-.98,4.76-.95,4.76v2.85l1.93,2.87s.95,3.79.95,4.76v7.61l-.95,2.87-.98,2.85.98,4.76-.98,6.66-.95,2.87-.98,3.79-1.91,4.78-3.86,3.79-5.79,2.87-2.88,3.79-2.88,10.48-.98,4.76.98-.24,7.7,5.02,2.88,2.85v4.76l3.86,5.72,1.93,5.7,2.88,14.29,2.91,20.96.95,21.9,1.93,24.75-.95,20.02v10.46s-1.93,1.91-2.91,1.91-6.74,0-6.74.96-.95,5.7-.95,6.67.95,1.91.95,1.91l1.93,8.57,6.74,13.33,1.93,10.48,3.79,20.63.02.09,5.77,18.94.98,5.48,3.53,9.49,5.61,9.87,4.44,17.54,6.65,13.15,4.44,10.96,2.22,13.15.44,1.51,1.77,7.26,4.44,8.77,4.44,6.58,4.44,2.19,11.76,4.36,9.47-.48,7.61.5,4.44,2.19,2.22,2.19,2.22,6.58Z"/>
  </g>
</svg>